<svg width="176" height="142" viewBox="0 0 176 142" fill="none" xmlns="http://www.w3.org/2000/svg">
<path d="M85.688 73.456H66.104C57.528 73.456 51.064 74.736 46.712 77.296C42.296 79.792 40.088 84.176 40.088 90.448C40.088 94.48 41.208 97.84 43.448 100.528C45.688 103.152 48.92 104.848 53.144 105.616V106.096C50.264 106.544 47.672 107.376 45.368 108.592C43 109.808 41.144 111.536 39.8 113.776C38.456 116.016 37.784 118.928 37.784 122.512C37.784 128.72 39.928 133.52 44.216 136.912C48.44 140.304 54.232 142 61.592 142H85.688V73.456ZM77.048 102.64H64.376C58.488 102.64 54.456 101.712 52.28 99.856C50.104 97.936 49.016 95.12 49.016 91.408C49.016 87.632 50.36 84.944 53.048 83.344C55.672 81.68 59.896 80.848 65.72 80.848H77.048V102.64ZM77.048 109.84V134.704H63.224C57.144 134.704 52.92 133.52 50.552 131.152C48.184 128.784 47 125.68 47 121.84C47 118.256 48.248 115.376 50.744 113.2C53.176 110.96 57.56 109.84 63.896 109.84H77.048Z" fill="#E8B297"/>
<path d="M27.648 36.68C33.92 36.68 38.56 38.056 41.568 40.808C44.576 43.56 46.08 47.944 46.08 53.96V89H39.936L38.304 81.704H37.92C35.68 84.52 33.312 86.6 30.816 87.944C28.384 89.288 24.992 89.96 20.64 89.96C15.968 89.96 12.096 88.744 9.024 86.312C5.952 83.816 4.416 79.944 4.416 74.696C4.416 69.576 6.432 65.64 10.464 62.888C14.496 60.072 20.704 58.536 29.088 58.28L37.824 57.992V54.92C37.824 50.632 36.896 47.656 35.04 45.992C33.184 44.328 30.56 43.496 27.168 43.496C24.48 43.496 21.92 43.912 19.488 44.744C17.056 45.512 14.784 46.408 12.672 47.432L10.08 41.096C12.32 39.88 14.976 38.856 18.048 38.024C21.12 37.128 24.32 36.68 27.648 36.68ZM37.728 63.848L30.144 64.136C23.744 64.392 19.296 65.416 16.8 67.208C14.368 69 13.152 71.528 13.152 74.792C13.152 77.672 14.016 79.784 15.744 81.128C17.536 82.472 19.808 83.144 22.56 83.144C26.912 83.144 30.528 81.96 33.408 79.592C36.288 77.16 37.728 73.448 37.728 68.456V63.848Z" fill="#E8B297"/>
</svg>
